<svg version="1.0" xmlns="http://www.w3.org/2000/svg" width="700pt" height="700pt" viewBox="0 0 700 700"><path d="M145.5 110.1c-16 3-28.1 13.3-33.8 28.7l-2.1 5.7-.1 203c-.1 114.8.3 205.1.8 207.9 1.8 10.1 9.3 21.5 18 27.5 17.9 12.1 43.1 9.2 57.1-6.7 5.9-6.6 10.3-16.1 11.1-23.6.2-1.7.4-68.5.4-148.4l.1-145.4 160.8 160.9c88.5 88.4 162.7 162 164.9 163.6 6.5 4.5 14.8 6.9 23.8 7 21 .1 38.3-13.5 43-33.8.9-3.7 1.1-57.7 1.1-208-.1-196.3-.2-203.2-2-208.5-10.5-30.6-46.9-40.4-71.1-19.2-7.1 6.3-13.1 17.5-14 26.4-.2 1.8-.4 68.7-.4 148.6L503 441 342.2 280.3C253.7 191.8 180 118.6 178.4 117.4c-9.3-6.5-22-9.3-32.9-7.3z"/></svg>